<?xml version="1.0" encoding="iso-8859-1"?>
<!-- Generator: Adobe Illustrator 17.0.1, SVG Export Plug-In . SVG Version: 6.00 Build 0)  -->
<!DOCTYPE svg PUBLIC "-//W3C//DTD SVG 1.1//EN" "http://www.w3.org/Graphics/SVG/1.1/DTD/svg11.dtd">
<svg version="1.1" id="Layer_1" xmlns="http://www.w3.org/2000/svg" xmlns:xlink="http://www.w3.org/1999/xlink" x="0px" y="0px"
	 viewBox="0 0 16 16" style="enable-background:new 0 0 16 16;" xml:space="preserve">
<path id="Blue_1_" style="fill:#007BB5;" d="M15.117,16C15.605,16,16,15.605,16,15.117V0.883C16,0.395,15.605,0,15.117,0H0.883
	C0.395,0,0,0.395,0,0.883v14.234C0,15.605,0.395,16,0.883,16H15.117z"/>
<path style="fill:#FFFFFF;" d="M2.371,5.999h2.374v7.635H2.371V5.999z M3.558,2.203c0.759,0,1.375,0.617,1.375,1.376
	c0,0.76-0.617,1.376-1.375,1.376c-0.761,0-1.376-0.617-1.376-1.376C2.183,2.819,2.798,2.203,3.558,2.203"/>
<path style="fill:#FFFFFF;" d="M6.234,5.999H8.51v1.043h0.032c0.317-0.6,1.091-1.233,2.246-1.233c2.401,0,2.845,1.581,2.845,3.638
	v4.188h-2.37V9.921c0-0.886-0.017-2.025-1.234-2.025c-1.235,0-1.423,0.965-1.423,1.961v3.777H6.234V5.999z"/>
</svg>
