<?xml version="1.0" encoding="iso-8859-1"?>
<!-- Generator: Adobe Illustrator 17.0.1, SVG Export Plug-In . SVG Version: 6.00 Build 0)  -->
<!DOCTYPE svg PUBLIC "-//W3C//DTD SVG 1.1//EN" "http://www.w3.org/Graphics/SVG/1.1/DTD/svg11.dtd">
<svg version="1.1" id="Layer_1" xmlns="http://www.w3.org/2000/svg" xmlns:xlink="http://www.w3.org/1999/xlink" x="0px" y="0px"
	 viewBox="0 0 16 16" style="enable-background:new 0 0 16 16;" xml:space="preserve">
<path id="Blue_1_" style="fill:#E8621D;" d="M15.117,16C15.605,16,16,15.605,16,15.117V0.883C16,0.395,15.605,0,15.117,0H0.883
	C0.395,0,0,0.395,0,0.883v14.234C0,15.605,0.395,16,0.883,16H15.117z"/>
<path style="fill:#FFFFFF;" d="M3.339,3.199c0,0,9.092-0.448,9.809,9.137h-1.836c0,0,0.359-6.987-7.972-7.614
	C3.339,4.722,3.339,3.199,3.339,3.199z"/>
<path style="fill:#FFFFFF;" d="M3.339,6.379c0,0,5.33-0.18,6.36,5.956H7.863c0,0-0.224-3.627-4.524-4.435
	C3.339,7.901,3.339,6.379,3.339,6.379z"/>
<path style="fill:#FFFFFF;" d="M4.337,10.375c0.643,0,1.165,0.521,1.165,1.165c0,0.643-0.522,1.164-1.165,1.164
	c-0.643,0-1.165-0.521-1.165-1.164C3.172,10.896,3.693,10.375,4.337,10.375z"/>
</svg>
